<?xml version="1.0" encoding="utf-8"?>
<!-- Generator: Adobe Illustrator 17.0.0, SVG Export Plug-In . SVG Version: 6.00 Build 0)  -->
<!DOCTYPE svg PUBLIC "-//W3C//DTD SVG 1.1//EN" "http://www.w3.org/Graphics/SVG/1.1/DTD/svg11.dtd">
<svg version="1.1" id="Capa_1" xmlns="http://www.w3.org/2000/svg" xmlns:xlink="http://www.w3.org/1999/xlink" x="0px" y="0px"
	 width="415.38px" height="415.38px" viewBox="113.175 260.06 415.38 415.38" enable-background="new 113.175 260.06 415.38 415.38"
	 xml:space="preserve">
<g>
	<g>
		<g>
			<path fill="#555555" d="M320.865,260.06c-114.528,0-207.69,93.174-207.69,207.69s93.162,207.69,207.69,207.69
				s207.69-93.174,207.69-207.69S435.393,260.06,320.865,260.06z M320.865,658.136c-104.976,0-190.386-85.404-190.386-190.386
				s85.404-190.386,190.386-190.386s190.386,85.404,190.386,190.386S425.841,658.136,320.865,658.136z"/>
			<path fill="#555555" d="M416.055,398.522c-23.862,0-43.266,19.41-43.266,43.266s19.404,43.266,43.266,43.266
				c14.316,0,25.962-11.646,25.962-25.962s-11.646-25.962-25.962-25.962c-4.782,0-8.652,3.87-8.652,8.652s3.87,8.652,8.652,8.652
				c4.764,0,8.652,3.876,8.652,8.652s-3.888,8.652-8.652,8.652c-14.316,0-25.962-11.646-25.962-25.962s11.646-25.962,25.962-25.962
				c23.868,0,43.266,19.41,43.266,43.266s-19.404,43.266-43.266,43.266c-33.396,0-60.576-27.18-60.576-60.576
				s27.18-60.576,60.576-60.576c4.782,0,8.652-3.87,8.652-8.652s-3.87-8.652-8.652-8.652c-42.948,0-77.886,34.938-77.886,77.886
				s34.938,77.886,77.886,77.886c33.396,0,60.576-27.18,60.576-60.576C476.631,425.702,449.457,398.522,416.055,398.522z"/>
			<path fill="#555555" d="M303.555,459.098c0-33.396-27.18-60.576-60.576-60.576c-23.868,0-43.266,19.41-43.266,43.266
				s19.404,43.266,43.266,43.266c14.316,0,25.962-11.646,25.962-25.962s-11.646-25.962-25.962-25.962
				c-4.782,0-8.652,3.87-8.652,8.652s3.87,8.652,8.652,8.652c4.764,0,8.652,3.876,8.652,8.652s-3.888,8.652-8.652,8.652
				c-14.316,0-25.962-11.646-25.962-25.962s11.646-25.962,25.962-25.962c23.868,0,43.266,19.41,43.266,43.266
				s-19.404,43.272-43.266,43.272c-33.396,0-60.576-27.18-60.576-60.576s27.18-60.576,60.576-60.576c4.782,0,8.652-3.87,8.652-8.652
				s-3.87-8.652-8.652-8.652c-42.948,0-77.886,34.938-77.886,77.886s34.938,77.886,77.886,77.886
				C276.381,519.674,303.555,492.494,303.555,459.098z"/>
			<path fill="#555555" d="M364.131,571.598h-86.532c-4.782,0-8.652,3.87-8.652,8.652s3.87,8.652,8.652,8.652h86.538
				c4.782,0,8.652-3.87,8.652-8.652S368.919,571.598,364.131,571.598z"/>
		</g>
	</g>
</g>
</svg>
