<?xml version="1.0" encoding="iso-8859-1"?>
<!-- Generator: Adobe Illustrator 19.0.0, SVG Export Plug-In . SVG Version: 6.00 Build 0)  -->
<svg version="1.1" id="Capa_1" xmlns="http://www.w3.org/2000/svg" xmlns:xlink="http://www.w3.org/1999/xlink" x="0px" y="0px"
	 viewBox="0 0 512 512" style="enable-background:new 0 0 512 512;" xml:space="preserve">
<path style="fill:#303C42;" d="M256,0C114.844,0,0,114.833,0,256s114.844,256,256,256s256-114.833,256-256S397.156,0,256,0z"/>
<path style="fill:#FED600;" d="M256,490.667C126.604,490.667,21.333,385.396,21.333,256S126.604,21.333,256,21.333
	S490.667,126.604,490.667,256S385.396,490.667,256,490.667z"/>
<path style="opacity:0.1;fill:#010101;enable-background:new    ;" d="M410.682,79.984c36.384,41.35,58.651,95.405,58.651,154.682
	c0,129.396-105.271,234.667-234.667,234.667c-59.277,0-113.332-22.267-154.682-58.651c43.038,48.911,105.897,79.984,176.016,79.984
	c129.396,0,234.667-105.271,234.667-234.667C490.667,185.882,459.594,123.022,410.682,79.984z"/>
<g>
	<path style="fill:#303C42;" d="M117.344,192c1.604,0,3.229-0.354,4.76-1.125l85.333-42.667c5.271-2.646,7.406-9.042,4.771-14.313
		c-2.635-5.271-9.063-7.438-14.313-4.771l-85.333,42.667c-5.271,2.646-7.406,9.042-4.771,14.313
		C109.667,189.833,113.427,192,117.344,192z"/>
	<path style="fill:#303C42;" d="M399.438,171.792l-85.333-42.667c-5.271-2.667-11.677-0.5-14.313,4.771
		c-2.635,5.271-0.5,11.667,4.771,14.313l85.333,42.667c1.531,0.771,3.156,1.125,4.76,1.125c3.917,0,7.677-2.167,9.552-5.896
		C406.844,180.833,404.708,174.438,399.438,171.792z"/>
	<path style="fill:#303C42;" d="M256,277.333c-70.563,0-133.25,48.313-149.042,114.875c-0.76,3.167-0.021,6.521,2.01,9.063
		c2.021,2.563,5.104,4.063,8.365,4.063h60.585C190.617,431.641,219.366,448,256,448c36.645,0,65.389-16.367,78.082-42.667h60.585
		c3.26,0,6.344-1.5,8.365-4.042c2.021-2.563,2.771-5.896,2.021-9.083C389.323,325.646,326.646,277.333,256,277.333z"/>
</g>
<path style="fill:#E53A35;" d="M256,426.667c-26.458,0-56.885-11.063-62.958-42.104c-0.802-4.104,0.604-8.333,3.573-10.75
	c9.302-7.604,18-11.146,27.385-11.146c7.336,0,14.435,2.029,21.333,5.159V384c0,5.896,4.771,10.667,10.667,10.667
	c5.896,0,10.667-4.771,10.667-10.667v-16.618c15.73-7.319,32.505-7.031,48.76,6.389h0.01c2.938,2.438,4.323,6.646,3.531,10.729
	C312.927,415.583,282.479,426.667,256,426.667z"/>
<g>
	<path style="opacity:0.2;fill:#FFFFFF;enable-background:new    ;" d="M196.615,384.479c9.302-7.604,18-11.146,27.385-11.146
		c7.336,0,14.435,2.029,21.333,5.159v-10.667c-6.898-3.13-13.997-5.159-21.333-5.159c-9.385,0-18.083,3.542-27.385,11.146
		c-2.969,2.417-4.375,6.646-3.573,10.75c0.251,1.288,0.783,2.339,1.116,3.557C194.801,386.767,195.475,385.406,196.615,384.479z"/>
	<path style="opacity:0.2;fill:#FFFFFF;enable-background:new    ;" d="M315.427,384.438h0.01c1.122,0.931,1.784,2.285,2.418,3.628
		c0.333-1.221,0.862-2.275,1.113-3.565c0.792-4.083-0.594-8.292-3.531-10.729h-0.01c-16.255-13.421-33.03-13.708-48.76-6.389v10.667
		C282.397,370.729,299.172,371.017,315.427,384.438z"/>
</g>
<path style="fill:#B72025;" d="M340.185,384c0.564-10.279-3.327-20.214-11.206-26.688c-22.958-18.917-49.375-20-72.979-8.521
	c-23.458-11.396-49.635-10.521-72.896,8.5c-7.902,6.482-11.827,16.415-11.28,26.708h-40.158
	c18.177-49.479,69.281-85.333,124.333-85.333c56.083,0,106.302,35.167,124.385,85.333H340.185z"/>
<path style="opacity:0.1;fill:#010101;enable-background:new    ;" d="M266.996,309.661c33.458,0,64.658,12.711,88.363,33.461
	c-24.495-27.215-60.371-44.456-99.359-44.456c-55.052,0-106.156,35.854-124.333,85.333h16.104
	C169.068,340.382,216.177,309.661,266.996,309.661z"/>
<linearGradient id="SVGID_1_" gradientUnits="userSpaceOnUse" x1="-45.5785" y1="639.5551" x2="-23.8277" y2="629.4137" gradientTransform="matrix(21.3333 0 0 -21.3333 996.3334 13791.667)">
	<stop  offset="0" style="stop-color:#FFFFFF;stop-opacity:0.2"/>
	<stop  offset="1" style="stop-color:#FFFFFF;stop-opacity:0"/>
</linearGradient>
<path style="fill:url(#SVGID_1_);" d="M256,0C114.844,0,0,114.833,0,256s114.844,256,256,256s256-114.833,256-256S397.156,0,256,0z"
	/>
<g>
</g>
<g>
</g>
<g>
</g>
<g>
</g>
<g>
</g>
<g>
</g>
<g>
</g>
<g>
</g>
<g>
</g>
<g>
</g>
<g>
</g>
<g>
</g>
<g>
</g>
<g>
</g>
<g>
</g>
</svg>
