<?xml version="1.0" encoding="utf-8"?>
<!-- Generator: Adobe Illustrator 17.0.0, SVG Export Plug-In . SVG Version: 6.00 Build 0)  -->
<!DOCTYPE svg PUBLIC "-//W3C//DTD SVG 1.1//EN" "http://www.w3.org/Graphics/SVG/1.1/DTD/svg11.dtd">
<svg version="1.1" id="Capa_1" xmlns="http://www.w3.org/2000/svg" xmlns:xlink="http://www.w3.org/1999/xlink" x="0px" y="0px"
	 width="100px" height="100px" viewBox="20.865 77.56 100 100" enable-background="new 20.865 77.56 100 100" xml:space="preserve">
<g>
	<g>
		<g>
			<path d="M70.865,91.31c-19.088,0-34.615,15.529-34.615,34.615s15.527,34.615,34.615,34.615s34.615-15.529,34.615-34.615
				S89.953,91.31,70.865,91.31z M70.865,157.656c-17.496,0-31.731-14.234-31.731-31.731s14.234-31.731,31.731-31.731
				s31.731,14.234,31.731,31.731S88.361,157.656,70.865,157.656z"/>
			<path d="M86.73,114.387c-3.977,0-7.211,3.235-7.211,7.211s3.234,7.211,7.211,7.211c2.386,0,4.327-1.941,4.327-4.327
				s-1.941-4.327-4.327-4.327c-0.797,0-1.442,0.645-1.442,1.442c0,0.797,0.645,1.442,1.442,1.442c0.794,0,1.442,0.646,1.442,1.442
				c0,0.796-0.648,1.442-1.442,1.442c-2.386,0-4.327-1.941-4.327-4.327s1.941-4.327,4.327-4.327c3.978,0,7.211,3.235,7.211,7.211
				s-3.234,7.211-7.211,7.211c-5.566,0-10.096-4.53-10.096-10.096c0-5.566,4.53-10.096,10.096-10.096
				c0.797,0,1.442-0.645,1.442-1.442c0-0.797-0.645-1.442-1.442-1.442c-7.158,0-12.981,5.823-12.981,12.981
				c0,7.158,5.823,12.981,12.981,12.981c5.566,0,10.096-4.53,10.096-10.096C96.826,118.917,92.297,114.387,86.73,114.387z"/>
			<path d="M67.98,124.483c0-5.566-4.53-10.096-10.096-10.096c-3.978,0-7.211,3.235-7.211,7.211s3.234,7.211,7.211,7.211
				c2.386,0,4.327-1.941,4.327-4.327s-1.941-4.327-4.327-4.327c-0.797,0-1.442,0.645-1.442,1.442s0.645,1.442,1.442,1.442
				c0.794,0,1.442,0.646,1.442,1.442c0,0.796-0.648,1.442-1.442,1.442c-2.386,0-4.327-1.941-4.327-4.327s1.941-4.327,4.327-4.327
				c3.978,0,7.211,3.235,7.211,7.211s-3.234,7.212-7.211,7.212c-5.566,0-10.096-4.53-10.096-10.096
				c0-5.566,4.53-10.096,10.096-10.096c0.797,0,1.442-0.645,1.442-1.442c0-0.797-0.645-1.442-1.442-1.442
				c-7.158,0-12.981,5.823-12.981,12.981c0,7.158,5.823,12.981,12.981,12.981C63.451,134.579,67.98,130.049,67.98,124.483z"/>
			<path d="M78.076,143.233H63.654c-0.797,0-1.442,0.645-1.442,1.442s0.645,1.442,1.442,1.442h14.423
				c0.797,0,1.442-0.645,1.442-1.442S78.874,143.233,78.076,143.233z"/>
		</g>
	</g>
</g>
</svg>
